<svg xmlns="http://www.w3.org/2000/svg" width="960" height="660" viewBox="0 0 960 660" font-family="PingFang SC, Microsoft YaHei, Noto Sans CJK SC, sans-serif">
<rect width="960" height="660" fill="#0d1424"/>
<circle cx="691.1999999999999" cy="40" r="160" fill="#38bdf8" opacity="0.05"/>
<circle cx="144.0" cy="660" r="120" fill="#818cf8" opacity="0.04"/>
<text x="28" y="34" fill="#f1f5f9" font-size="16" font-weight="600">AI 深度研报</text>
<text x="28" y="52" fill="#64748b" font-size="12">界面示意图，数值为演示数据</text>
<rect x="28" y="66" width="560" height="34" rx="8" fill="#151e33" stroke="rgba(255,255,255,0.10)"/>
<text x="51.0" y="88" fill="#94a3b8" font-size="12" text-anchor="middle">首页</text>
<rect x="84" y="71" width="62" height="24" rx="6" fill="#38bdf8" opacity="0.16"/>
<text x="115.0" y="88" fill="#38bdf8" font-size="12" text-anchor="middle">股票分析</text>
<text x="191.0" y="88" fill="#94a3b8" font-size="12" text-anchor="middle">大盘分析</text>
<text x="267.0" y="88" fill="#94a3b8" font-size="12" text-anchor="middle">热门个股</text>
<text x="343.0" y="88" fill="#94a3b8" font-size="12" text-anchor="middle">研报复盘</text>
<rect x="28" y="122" width="904" height="52" rx="10" fill="#151e33" stroke="rgba(255,255,255,0.10)"/>
<text x="48" y="145" fill="#f1f5f9" font-size="16" font-weight="700">宁德时代 300750.SZ</text>
<text x="48" y="164" fill="#94a3b8" font-size="12">新能源 · 电池</text>
<text x="880" y="152" fill="#f87171" font-size="15" font-weight="600" text-anchor="end">+2.31%</text>
<rect x="28" y="194" width="904" height="74" rx="10" fill="#151e33" stroke="rgba(255,255,255,0.10)"/>
<rect x="28" y="194" width="3" height="74" rx="1.5" fill="#38bdf8" opacity="0.7"/>
<text x="48" y="220" fill="#f1f5f9" font-size="14" font-weight="600">一、生意本质与护城河</text>
<rect x="48" y="238" width="760" height="8" rx="4" fill="#64748b" opacity="0.35"/>
<rect x="48" y="260" width="640" height="8" rx="4" fill="#64748b" opacity="0.35"/>
<rect x="28" y="282" width="904" height="96" rx="10" fill="#151e33" stroke="rgba(255,255,255,0.10)"/>
<rect x="28" y="282" width="3" height="96" rx="1.5" fill="#38bdf8" opacity="0.7"/>
<text x="48" y="308" fill="#f1f5f9" font-size="14" font-weight="600">二、财务质量体检</text>
<rect x="48" y="326" width="820" height="8" rx="4" fill="#64748b" opacity="0.35"/>
<rect x="48" y="348" width="700" height="8" rx="4" fill="#64748b" opacity="0.35"/>
<rect x="48" y="370" width="760" height="8" rx="4" fill="#64748b" opacity="0.35"/>
<rect x="28" y="392" width="904" height="118" rx="10" fill="#151e33" stroke="rgba(255,255,255,0.10)"/>
<rect x="28" y="392" width="3" height="118" rx="1.5" fill="#38bdf8" opacity="0.7"/>
<text x="48" y="418" fill="#f1f5f9" font-size="14" font-weight="600">三、估值锚定与内在价值</text>
<rect x="48" y="436" width="640" height="8" rx="4" fill="#64748b" opacity="0.35"/>
<rect x="48" y="458" width="820" height="8" rx="4" fill="#64748b" opacity="0.35"/>
<rect x="48" y="480" width="700" height="8" rx="4" fill="#64748b" opacity="0.35"/>
<rect x="48" y="502" width="760" height="8" rx="4" fill="#64748b" opacity="0.35"/>
<rect x="28" y="524" width="448" height="96" rx="10" fill="#151e33" stroke="#38bdf8" stroke-opacity="0.4"/>
<text x="48" y="552" fill="#38bdf8" font-size="12">合理价值区间（DCF 三情景）</text>
<text x="48" y="586" fill="#f1f5f9" font-size="24" font-weight="700">186 ~ 242</text>
<text x="48" y="606" fill="#64748b" font-size="11">单位：元/股 · 敏感性 ±18%</text>
<rect x="492" y="524" width="440" height="96" rx="10" fill="#151e33" stroke="rgba(255,255,255,0.10)"/>
<text x="512" y="552" fill="#94a3b8" font-size="12">结论</text>
<text x="512" y="584" fill="#34d399" font-size="20" font-weight="700">合理</text>
<text x="600" y="584" fill="#64748b" font-size="12">性价比评分 6.5 / 10</text>
</svg>